<svg width="1024" height="1024" viewBox="0 0 1024 1024" fill="none" xmlns="http://www.w3.org/2000/svg">
<circle cx="511.5" cy="511.5" r="482.5" fill="#FFCD38"/>
<path d="M337.24 436.04H431.2L384.22 295.1L337.24 436.04ZM425.26 206L561.88 584H480.88L453.88 503H314.56L287.56 584H208.72L345.34 206H425.26Z" fill="black"/>
<path d="M563.08 348H838.68V420.28L635.36 644.4H838.68V712H552.16V639.2L755.48 415.6H563.08V348Z" fill="black"/>
<path d="M290.492 825L235.112 626.2H279.7L315.768 763.94L352.688 626.2H398.128L435.332 763.656L471.116 626.2H515.136L459.756 825H415.452L375.124 677.32L334.796 825H290.492Z" fill="black"/>
</svg>
